<svg width="196" height="65" viewBox="0 0 196 65" fill="none" xmlns="http://www.w3.org/2000/svg">
<path d="M2.95784 14.6892V2.78867H5.96757V14.6892H2.95784ZM8.44771 14.6892V2.78867H11.5439L15.4185 9.17137H15.505V2.78867H18.3937V14.6892H15.5742L11.4228 7.7184H11.3364V14.6892H8.44771ZM25.2053 14.8276C24.744 14.8276 24.2424 14.8161 23.7004 14.793C23.17 14.7699 22.6453 14.7353 22.1264 14.6892C21.619 14.6431 21.1635 14.597 20.7599 14.5508V12.3195C21.1865 12.3541 21.6132 12.3887 22.0399 12.4233C22.4781 12.4579 22.8932 12.4809 23.2853 12.4925C23.6774 12.504 24.006 12.5097 24.2712 12.5097C24.8247 12.5097 25.2456 12.4925 25.5339 12.4579C25.8222 12.4117 26.0355 12.3483 26.1739 12.2676C26.2662 12.1869 26.3296 12.1004 26.3642 12.0081C26.4103 11.9159 26.4392 11.8063 26.4507 11.6795C26.4622 11.5526 26.468 11.4085 26.468 11.247C26.468 11.0049 26.4507 10.8146 26.4161 10.6762C26.393 10.5263 26.3354 10.411 26.2431 10.3303C26.1624 10.2496 26.0355 10.1919 25.8626 10.1573C25.6896 10.1112 25.4647 10.0708 25.188 10.0362L22.7491 9.72488C22.2763 9.66723 21.89 9.55191 21.5901 9.37894C21.2903 9.19443 21.0539 8.95227 20.881 8.65245C20.708 8.35263 20.5869 8.00092 20.5177 7.59732C20.4485 7.18218 20.4139 6.72092 20.4139 6.21353C20.4139 5.42939 20.5292 4.80669 20.7599 4.34542C20.9905 3.87263 21.3076 3.51515 21.7112 3.27299C22.1264 3.0193 22.6049 2.85209 23.1469 2.77137C23.7004 2.69065 24.3001 2.65029 24.9458 2.65029C25.4071 2.65029 25.8856 2.66759 26.3815 2.70218C26.8774 2.72524 27.3444 2.7656 27.7826 2.82326C28.2208 2.86939 28.584 2.92705 28.8723 2.99623V5.17569C28.584 5.12957 28.2438 5.09497 27.8518 5.07191C27.4712 5.03732 27.0734 5.01425 26.6583 5.00272C26.2431 4.97966 25.851 4.96813 25.482 4.96813C25.0323 4.96813 24.6748 4.98542 24.4096 5.02002C24.1444 5.04308 23.9368 5.09497 23.7869 5.17569C23.6255 5.26795 23.5217 5.38903 23.4755 5.53894C23.441 5.68885 23.4237 5.87912 23.4237 6.10975C23.4237 6.39804 23.4467 6.6229 23.4928 6.78434C23.539 6.93425 23.6428 7.03804 23.8042 7.09569C23.9656 7.15335 24.2136 7.20524 24.548 7.25137L26.9177 7.52813C27.2406 7.56272 27.5346 7.62038 27.7999 7.7011C28.0766 7.78182 28.3246 7.90867 28.5437 8.08164C28.7743 8.25461 28.9646 8.50254 29.1145 8.82542C29.1952 8.97533 29.2586 9.15984 29.3047 9.37894C29.3509 9.58651 29.3912 9.82867 29.4258 10.1054C29.4604 10.3822 29.4777 10.6935 29.4777 11.0395C29.4777 11.7198 29.4085 12.2964 29.2701 12.7692C29.1318 13.2305 28.9357 13.5995 28.682 13.8762C28.4283 14.1415 28.1228 14.349 27.7653 14.4989C27.4078 14.6373 27.01 14.7238 26.5718 14.7584C26.1451 14.8045 25.6896 14.8276 25.2053 14.8276ZM33.8403 14.6892V5.21029H30.5884V2.78867H40.1192V5.21029H36.85V14.6892H33.8403ZM39.7904 14.6892L43.5612 2.78867H47.6607L51.4488 14.6892H48.4045L47.6953 12.3541H43.4574L42.7656 14.6892H39.7904ZM44.0974 10.0881H47.038L45.6196 5.38326H45.4985L44.0974 10.0881ZM57.8562 14.8276C56.9683 14.8276 56.2187 14.7699 55.6076 14.6546C54.9964 14.5393 54.489 14.349 54.0854 14.0838C53.6818 13.807 53.3647 13.438 53.1341 12.9768C52.915 12.504 52.7593 11.9216 52.667 11.2297C52.5863 10.5379 52.546 9.70759 52.546 8.73894C52.546 7.77029 52.5863 6.94002 52.667 6.24813C52.7593 5.55623 52.9207 4.97966 53.1514 4.5184C53.382 4.0456 53.6991 3.6766 54.1027 3.41137C54.5063 3.13461 55.0137 2.93858 55.6249 2.82326C56.236 2.70795 56.9798 2.65029 57.8562 2.65029C58.2483 2.65029 58.6865 2.66759 59.1708 2.70218C59.6551 2.73678 60.1337 2.7829 60.6065 2.84056C61.0908 2.89822 61.5406 2.96741 61.9557 3.04813V5.21029C61.5636 5.15263 61.1715 5.11227 60.7795 5.08921C60.3989 5.05461 60.0472 5.02578 59.7243 5.00272C59.4015 4.97966 59.1362 4.96813 58.9287 4.96813C58.306 4.96813 57.7928 4.97966 57.3892 5.00272C56.9856 5.02578 56.6569 5.10074 56.4033 5.22759C56.1496 5.3429 55.9593 5.53317 55.8324 5.7984C55.7056 6.06362 55.6191 6.4384 55.573 6.92272C55.5384 7.39551 55.5211 8.00092 55.5211 8.73894C55.5211 9.39624 55.5326 9.94975 55.5557 10.3995C55.5903 10.8492 55.6537 11.2182 55.746 11.5065C55.8497 11.7948 55.9881 12.0197 56.1611 12.1811C56.3456 12.331 56.582 12.4348 56.8703 12.4925C57.1701 12.5501 57.5333 12.5789 57.96 12.5789C58.0984 12.5789 58.2483 12.5789 58.4097 12.5789C58.5712 12.5674 58.7269 12.5559 58.8768 12.5443C59.0267 12.5328 59.1535 12.527 59.2573 12.527V9.94975H57.5622V7.78759H62.0076V14.447C61.5924 14.5278 61.1369 14.597 60.6411 14.6546C60.1452 14.7007 59.6551 14.7411 59.1708 14.7757C58.6865 14.8103 58.2483 14.8276 57.8562 14.8276ZM64.3599 14.6892V2.78867H70.2583C71.0309 2.78867 71.6536 2.87515 72.1264 3.04813C72.6107 3.20957 72.9739 3.4575 73.2161 3.79191C73.4698 4.11479 73.637 4.5184 73.7177 5.00272C73.81 5.47551 73.8561 6.0175 73.8561 6.62867C73.8561 7.0784 73.8215 7.53389 73.7523 7.99515C73.6831 8.44488 73.5332 8.86002 73.3026 9.24056C73.0835 9.60957 72.7433 9.89209 72.282 10.0881L74.081 14.6892H70.9501L69.2723 9.93245L70.0334 10.3476C69.9296 10.4052 69.8201 10.4398 69.7047 10.4514C69.601 10.4629 69.4683 10.4687 69.3069 10.4687H67.3696V14.6892H64.3599ZM67.3696 8.23732H69.0993C69.4914 8.23732 69.8028 8.22002 70.0334 8.18542C70.2756 8.1393 70.4543 8.05858 70.5696 7.94326C70.6849 7.82795 70.7599 7.66651 70.7945 7.45894C70.8291 7.25137 70.8464 6.98615 70.8464 6.66326C70.8464 6.32885 70.8291 6.05786 70.7945 5.85029C70.7714 5.64272 70.7022 5.48705 70.5869 5.38326C70.4831 5.26795 70.3101 5.18723 70.068 5.1411C69.8374 5.09497 69.5145 5.07191 69.0993 5.07191H67.3696V8.23732ZM74.8918 14.6892L78.6626 2.78867H82.762L86.5501 14.6892H83.5058L82.7966 12.3541H78.5588L77.8669 14.6892H74.8918ZM79.1988 10.0881H82.1393L80.721 5.38326H80.5999L79.1988 10.0881ZM87.9241 14.6892V2.78867H92.0581L94.4279 9.84597H94.5489L96.9187 2.78867H101.035V14.6892H98.1468V6.95732H98.0257L95.4484 14.6892H93.4246L90.8646 6.95732H90.7262V14.6892H87.9241Z" fill="white"/>
<rect x="114.368" y="5.69983" width="4.22758" height="4.22758" transform="rotate(45 114.368 5.69983)" fill="#F11466"/>
<rect x="114.253" width="54.301" height="17.3784" rx="3.10412" fill="#F11466"/>
<path d="M124.672 8.59461C124.05 8.59461 123.483 8.27029 123.172 7.72975C122.861 7.20272 122.861 6.54056 123.172 6.00002C123.483 5.47299 124.05 5.13515 124.672 5.13515C125.28 5.13515 125.848 5.47299 126.158 6.00002C126.469 6.54056 126.469 7.20272 126.158 7.72975C125.848 8.27029 125.28 8.59461 124.672 8.59461ZM124.05 9.24326H125.28C126.618 9.24326 127.699 10.3243 127.699 11.6622C127.699 11.8784 127.51 12.0541 127.293 12.0541H122.037C121.821 12.0541 121.645 11.8784 121.645 11.6622C121.645 10.3243 122.712 9.24326 124.05 9.24326Z" fill="white"/>
<path d="M132.496 8.17191H135.6V9.20662H132.496V8.17191Z" fill="white"/>
<path d="M133.531 10.2413L133.531 7.13721L134.566 7.13721L134.566 10.2413H133.531Z" fill="white"/>
<path d="M139.472 5.19407C139.939 5.19407 140.34 5.27191 140.674 5.42759C141.008 5.5775 141.279 5.79371 141.487 6.07624C141.7 6.35299 141.856 6.67299 141.954 7.03624C142.058 7.39948 142.11 7.78867 142.11 8.2038V8.56705C142.11 9.61642 141.842 10.4092 141.305 10.9454C140.769 11.4759 139.979 11.7411 138.936 11.7411C138.722 11.7411 138.512 11.7353 138.304 11.7238C138.097 11.7123 137.895 11.695 137.699 11.6719V10.487C137.889 10.5043 138.094 10.5216 138.313 10.5389C138.532 10.5505 138.757 10.5562 138.988 10.5562C139.449 10.5562 139.812 10.4813 140.077 10.3314C140.343 10.1757 140.53 9.94506 140.639 9.63948C140.749 9.33389 140.804 8.95624 140.804 8.50651V7.84921L141.115 7.64164C141.109 8.07407 141.02 8.43732 140.847 8.73137C140.68 9.01966 140.446 9.23588 140.146 9.38002C139.847 9.52416 139.501 9.59624 139.109 9.59624C138.665 9.59624 138.281 9.50975 137.958 9.33678C137.635 9.15804 137.388 8.91011 137.215 8.59299C137.042 8.27588 136.955 7.9011 136.955 7.46867C136.955 7.01317 137.059 6.61533 137.266 6.27515C137.474 5.92921 137.765 5.66398 138.14 5.47948C138.521 5.28921 138.965 5.19407 139.472 5.19407ZM139.515 6.37029C139.261 6.37029 139.045 6.41642 138.866 6.50867C138.694 6.60092 138.558 6.72777 138.46 6.88921C138.368 7.04488 138.322 7.22939 138.322 7.44272C138.322 7.66182 138.368 7.85209 138.46 8.01353C138.552 8.16921 138.682 8.29317 138.849 8.38542C139.022 8.47191 139.233 8.51515 139.481 8.51515C139.705 8.51515 139.91 8.47768 140.095 8.40272C140.285 8.322 140.435 8.2038 140.544 8.04813C140.654 7.88669 140.709 7.68488 140.709 7.44272C140.709 7.23515 140.663 7.05065 140.57 6.88921C140.484 6.72777 140.351 6.60092 140.172 6.50867C139.994 6.41642 139.775 6.37029 139.515 6.37029ZM145.409 5.19407C145.876 5.19407 146.277 5.27191 146.612 5.42759C146.946 5.5775 147.217 5.79371 147.425 6.07624C147.638 6.35299 147.794 6.67299 147.892 7.03624C147.995 7.39948 148.047 7.78867 148.047 8.2038V8.56705C148.047 9.61642 147.779 10.4092 147.243 10.9454C146.707 11.4759 145.917 11.7411 144.873 11.7411C144.66 11.7411 144.449 11.7353 144.242 11.7238C144.034 11.7123 143.832 11.695 143.636 11.6719V10.487C143.827 10.5043 144.031 10.5216 144.25 10.5389C144.47 10.5505 144.694 10.5562 144.925 10.5562C145.386 10.5562 145.75 10.4813 146.015 10.3314C146.28 10.1757 146.467 9.94506 146.577 9.63948C146.687 9.33389 146.741 8.95624 146.741 8.50651V7.84921L147.053 7.64164C147.047 8.07407 146.957 8.43732 146.785 8.73137C146.617 9.01966 146.384 9.23588 146.084 9.38002C145.784 9.52416 145.438 9.59624 145.046 9.59624C144.602 9.59624 144.219 9.50975 143.896 9.33678C143.573 9.15804 143.325 8.91011 143.152 8.59299C142.979 8.27588 142.893 7.9011 142.893 7.46867C142.893 7.01317 142.996 6.61533 143.204 6.27515C143.412 5.92921 143.703 5.66398 144.077 5.47948C144.458 5.28921 144.902 5.19407 145.409 5.19407ZM145.453 6.37029C145.199 6.37029 144.983 6.41642 144.804 6.50867C144.631 6.60092 144.496 6.72777 144.397 6.88921C144.305 7.04488 144.259 7.22939 144.259 7.44272C144.259 7.66182 144.305 7.85209 144.397 8.01353C144.49 8.16921 144.619 8.29317 144.787 8.38542C144.96 8.47191 145.17 8.51515 145.418 8.51515C145.643 8.51515 145.848 8.47768 146.032 8.40272C146.222 8.322 146.372 8.2038 146.482 8.04813C146.591 7.88669 146.646 7.68488 146.646 7.44272C146.646 7.23515 146.6 7.05065 146.508 6.88921C146.421 6.72777 146.289 6.60092 146.11 6.50867C145.931 6.41642 145.712 6.37029 145.453 6.37029ZM151.347 5.19407C151.814 5.19407 152.215 5.27191 152.549 5.42759C152.883 5.5775 153.154 5.79371 153.362 6.07624C153.575 6.35299 153.731 6.67299 153.829 7.03624C153.933 7.39948 153.985 7.78867 153.985 8.2038V8.56705C153.985 9.61642 153.717 10.4092 153.18 10.9454C152.644 11.4759 151.854 11.7411 150.811 11.7411C150.597 11.7411 150.387 11.7353 150.179 11.7238C149.972 11.7123 149.77 11.695 149.574 11.6719V10.487C149.764 10.5043 149.969 10.5216 150.188 10.5389C150.407 10.5505 150.632 10.5562 150.863 10.5562C151.324 10.5562 151.687 10.4813 151.952 10.3314C152.218 10.1757 152.405 9.94506 152.514 9.63948C152.624 9.33389 152.679 8.95624 152.679 8.50651V7.84921L152.99 7.64164C152.984 8.07407 152.895 8.43732 152.722 8.73137C152.555 9.01966 152.321 9.23588 152.021 9.38002C151.722 9.52416 151.376 9.59624 150.984 9.59624C150.54 9.59624 150.156 9.50975 149.833 9.33678C149.51 9.15804 149.263 8.91011 149.09 8.59299C148.917 8.27588 148.83 7.9011 148.83 7.46867C148.83 7.01317 148.934 6.61533 149.141 6.27515C149.349 5.92921 149.64 5.66398 150.015 5.47948C150.396 5.28921 150.84 5.19407 151.347 5.19407ZM151.39 6.37029C151.136 6.37029 150.92 6.41642 150.741 6.50867C150.569 6.60092 150.433 6.72777 150.335 6.88921C150.243 7.04488 150.197 7.22939 150.197 7.44272C150.197 7.66182 150.243 7.85209 150.335 8.01353C150.427 8.16921 150.557 8.29317 150.724 8.38542C150.897 8.47191 151.108 8.51515 151.356 8.51515C151.58 8.51515 151.785 8.47768 151.97 8.40272C152.16 8.322 152.31 8.2038 152.419 8.04813C152.529 7.88669 152.584 7.68488 152.584 7.44272C152.584 7.23515 152.538 7.05065 152.445 6.88921C152.359 6.72777 152.226 6.60092 152.047 6.50867C151.869 6.41642 151.65 6.37029 151.39 6.37029ZM159.308 11.6892L157.129 8.74002H156.255L158.902 5.37569H160.528L158.149 8.39407L158.132 7.78002L161.021 11.6892H159.308ZM155.157 11.6892V5.37569H156.575V11.6892H155.157Z" fill="white"/>
<path d="M2.54616 25.9452H16.2179C22.3066 25.9452 25.3509 29.1372 25.3509 35.521C25.3509 38.2517 24.945 40.3181 24.1332 41.7204C23.3214 43.0857 22.0298 44.0082 20.2586 44.4879V44.7094C22.1036 45.1891 23.4505 46.0931 24.2992 47.4216C25.1849 48.7131 25.6277 50.8534 25.6277 53.8423C25.6277 57.2741 24.8712 59.8387 23.3583 61.5362C21.8822 63.1967 19.5021 64.027 16.2179 64.027H2.54616V25.9452ZM13.7825 41.1669C14.6312 41.1669 15.2401 41.0931 15.6091 40.9455C16.015 40.761 16.2917 40.4104 16.4394 39.8938C16.587 39.3772 16.6608 38.5285 16.6608 37.3476C16.6608 36.093 16.587 35.2258 16.4394 34.7461C16.3286 34.2295 16.0888 33.8974 15.7198 33.7498C15.3508 33.5653 14.705 33.473 13.7825 33.473H11.2363V41.1669H13.7825ZM13.8378 56.4992C14.7604 56.4992 15.4061 56.4254 15.7751 56.2778C16.181 56.0933 16.4394 55.7427 16.5501 55.2261C16.6977 54.6726 16.7715 53.7501 16.7715 52.4585C16.7715 51.2039 16.6977 50.2998 16.5501 49.7463C16.4025 49.1928 16.1257 48.8423 15.7198 48.6947C15.3508 48.5101 14.7235 48.4179 13.8378 48.4179H11.2363V56.4992H13.8378ZM39.4785 64.4698C35.5301 64.4698 32.7256 63.8978 31.0651 62.7539C29.4045 61.5731 28.3713 59.7649 27.9654 57.3295C27.5595 54.8571 27.3565 50.7427 27.3565 44.9861C27.3565 39.2296 27.5595 35.1151 27.9654 32.6428C28.3713 30.1704 29.4045 28.3623 31.0651 27.2183C32.7256 26.0744 35.5301 25.5024 39.4785 25.5024C43.4269 25.5024 46.2314 26.0744 47.8919 27.2183C49.5893 28.3623 50.641 30.1704 51.0469 32.6428C51.4528 35.1151 51.6558 39.2296 51.6558 44.9861C51.6558 50.7427 51.4528 54.8571 51.0469 57.3295C50.641 59.7649 49.5893 61.5731 47.8919 62.7539C46.2314 63.8978 43.4269 64.4698 39.4785 64.4698ZM39.4785 56.8867C40.6593 56.8867 41.4342 56.7021 41.8032 56.3331C42.2092 55.9641 42.4675 55.0601 42.5782 53.6209C42.6889 52.1818 42.7442 49.3035 42.7442 44.9861C42.7442 40.6687 42.6889 37.7904 42.5782 36.3513C42.4675 34.9122 42.2092 34.0081 41.8032 33.6391C41.4342 33.2701 40.6593 33.0856 39.4785 33.0856C38.3346 33.0856 37.5596 33.2701 37.1537 33.6391C36.7847 34.0081 36.5449 34.9122 36.4342 36.3513C36.3235 37.7904 36.2681 40.6687 36.2681 44.9861C36.2681 49.3035 36.3235 52.1818 36.4342 53.6209C36.5449 55.0601 36.7847 55.9641 37.1537 56.3331C37.5596 56.7021 38.3346 56.8867 39.4785 56.8867ZM80.3741 64.027V37.0709H79.9312L75.4478 64.027H67.5879L63.1598 37.0709H62.717V64.027H54.3589V25.9452H67.6432L71.5178 50.6319H71.9607L75.8352 25.9452H88.8428V64.027H80.3741ZM92.2672 25.9452H105.939C112.028 25.9452 115.072 29.1372 115.072 35.521C115.072 38.2517 114.666 40.3181 113.854 41.7204C113.042 43.0857 111.751 44.0082 109.98 44.4879V44.7094C111.825 45.1891 113.172 46.0931 114.02 47.4216C114.906 48.7131 115.349 50.8534 115.349 53.8423C115.349 57.2741 114.592 59.8387 113.079 61.5362C111.603 63.1967 109.223 64.027 105.939 64.027H92.2672V25.9452ZM103.504 41.1669C104.352 41.1669 104.961 41.0931 105.33 40.9455C105.736 40.761 106.013 40.4104 106.16 39.8938C106.308 39.3772 106.382 38.5285 106.382 37.3476C106.382 36.093 106.308 35.2258 106.16 34.7461C106.05 34.2295 105.81 33.8974 105.441 33.7498C105.072 33.5653 104.426 33.473 103.504 33.473H100.957V41.1669H103.504ZM103.559 56.4992C104.481 56.4992 105.127 56.4254 105.496 56.2778C105.902 56.0933 106.16 55.7427 106.271 55.2261C106.419 54.6726 106.493 53.7501 106.493 52.4585C106.493 51.2039 106.419 50.2998 106.271 49.7463C106.124 49.1928 105.847 48.8423 105.441 48.6947C105.072 48.5101 104.445 48.4179 103.559 48.4179H100.957V56.4992H103.559ZM134.181 64.027L133.019 56.942H125.38L124.218 64.027H115.472L122.834 25.9452H135.731L143.093 64.027H134.181ZM129.366 34.0265H128.978L126.543 49.5803H131.801L129.366 34.0265ZM144.243 25.9452H154.982C159.004 25.9452 161.864 26.5172 163.561 27.6611C165.295 28.7682 166.366 30.521 166.771 32.9195C167.177 35.3181 167.38 39.3403 167.38 44.9861C167.38 50.595 167.177 54.6172 166.771 57.0527C166.366 59.4513 165.295 61.2225 163.561 62.3664C161.864 63.4735 159.004 64.027 154.982 64.027H144.243V25.9452ZM154.926 56.4438C156.255 56.4438 157.122 56.2778 157.528 55.9457C157.971 55.5767 158.247 54.691 158.358 53.2888C158.506 51.8866 158.579 49.119 158.579 44.9861C158.579 40.8901 158.506 38.141 158.358 36.7388C158.247 35.2996 157.971 34.414 157.528 34.0819C157.085 33.7129 156.218 33.5284 154.926 33.5284H153.044V56.4438H154.926ZM181.608 64.4698C177.66 64.4698 174.855 63.8978 173.195 62.7539C171.534 61.5731 170.501 59.7649 170.095 57.3295C169.689 54.8571 169.486 50.7427 169.486 44.9861C169.486 39.2296 169.689 35.1151 170.095 32.6428C170.501 30.1704 171.534 28.3623 173.195 27.2183C174.855 26.0744 177.66 25.5024 181.608 25.5024C185.557 25.5024 188.361 26.0744 190.022 27.2183C191.719 28.3623 192.771 30.1704 193.177 32.6428C193.583 35.1151 193.786 39.2296 193.786 44.9861C193.786 50.7427 193.583 54.8571 193.177 57.3295C192.771 59.7649 191.719 61.5731 190.022 62.7539C188.361 63.8978 185.557 64.4698 181.608 64.4698ZM181.608 56.8867C182.789 56.8867 183.564 56.7021 183.933 56.3331C184.339 55.9641 184.597 55.0601 184.708 53.6209C184.819 52.1818 184.874 49.3035 184.874 44.9861C184.874 40.6687 184.819 37.7904 184.708 36.3513C184.597 34.9122 184.339 34.0081 183.933 33.6391C183.564 33.2701 182.789 33.0856 181.608 33.0856C180.464 33.0856 179.689 33.2701 179.283 33.6391C178.914 34.0081 178.675 34.9122 178.564 36.3513C178.453 37.7904 178.398 40.6687 178.398 44.9861C178.398 49.3035 178.453 52.1818 178.564 53.6209C178.675 55.0601 178.914 55.9641 179.283 56.3331C179.689 56.7021 180.464 56.8867 181.608 56.8867Z" fill="url(#paint0_linear_3572_1429)"/>
<defs>
<linearGradient id="paint0_linear_3572_1429" x1="202" y1="64.0135" x2="8.3132e-06" y2="26.0135" gradientUnits="userSpaceOnUse">
<stop stop-color="#FFBC0F"/>
<stop offset="1" stop-color="#FF348D"/>
</linearGradient>
</defs>
</svg>
